%TF.GenerationSoftware,KiCad,Pcbnew,(6.0.4-0)*%
%TF.CreationDate,2022-04-09T01:41:43-04:00*%
%TF.ProjectId,msp_stuff,6d73705f-7374-4756-9666-2e6b69636164,rev?*%
%TF.SameCoordinates,Original*%
%TF.FileFunction,Copper,L2,Bot*%
%TF.FilePolarity,Positive*%
%FSLAX46Y46*%
G04 Gerber Fmt 4.6, Leading zero omitted, Abs format (unit mm)*
G04 Created by KiCad (PCBNEW (6.0.4-0)) date 2022-04-09 01:41:43*
%MOMM*%
%LPD*%
G01*
G04 APERTURE LIST*
%TA.AperFunction,ComponentPad*%
%ADD10C,3.000000*%
%TD*%
%TA.AperFunction,ComponentPad*%
%ADD11R,1.800000X2.600000*%
%TD*%
%TA.AperFunction,ComponentPad*%
%ADD12O,1.800000X2.600000*%
%TD*%
%TA.AperFunction,ComponentPad*%
%ADD13R,1.700000X1.700000*%
%TD*%
%TA.AperFunction,ComponentPad*%
%ADD14O,1.700000X1.700000*%
%TD*%
%TA.AperFunction,ViaPad*%
%ADD15C,0.800000*%
%TD*%
%TA.AperFunction,Conductor*%
%ADD16C,0.200000*%
%TD*%
%TA.AperFunction,Conductor*%
%ADD17C,0.250000*%
%TD*%
G04 APERTURE END LIST*
D10*
%TO.P,U1,*%
%TO.N,*%
X86960900Y-141373200D03*
X86960900Y-110372500D03*
X161959480Y-141373200D03*
X161960000Y-110372500D03*
D11*
%TO.P,U1,1,VSS*%
%TO.N,GND*%
X92460000Y-110372500D03*
D12*
%TO.P,U1,2,VDD*%
%TO.N,+BATT*%
X95000000Y-110372500D03*
%TO.P,U1,3,Vo*%
%TO.N,Net-(RV1-Pad2)*%
X97540000Y-110372500D03*
%TO.P,U1,4,RS*%
%TO.N,Net-(U1-Pad4)*%
X100080000Y-110372500D03*
%TO.P,U1,5,R/~{W}*%
%TO.N,GND*%
X102620000Y-110372500D03*
%TO.P,U1,6,~{E}*%
%TO.N,Net-(U1-Pad6)*%
X105160000Y-110372500D03*
%TO.P,U1,7,DB0*%
%TO.N,unconnected-(U1-Pad7)*%
X107700000Y-110372500D03*
%TO.P,U1,8,DB1*%
%TO.N,unconnected-(U1-Pad8)*%
X110240000Y-110372500D03*
%TO.P,U1,9,DB2*%
%TO.N,unconnected-(U1-Pad9)*%
X112780000Y-110372500D03*
%TO.P,U1,10,DB3*%
%TO.N,unconnected-(U1-Pad10)*%
X115320000Y-110372500D03*
%TO.P,U1,11,DB4*%
%TO.N,Net-(U1-Pad11)*%
X117860000Y-110372500D03*
%TO.P,U1,12,DB5*%
%TO.N,Net-(U1-Pad12)*%
X120400000Y-110372500D03*
%TO.P,U1,13,DB6*%
%TO.N,Net-(U1-Pad13)*%
X122940000Y-110372500D03*
%TO.P,U1,14,DB7*%
%TO.N,Net-(U1-Pad14)*%
X125480000Y-110372500D03*
%TO.P,U1,15,A/VEE*%
%TO.N,+BATT*%
X128020000Y-110372500D03*
%TO.P,U1,16,K*%
%TO.N,GND*%
X130560000Y-110372500D03*
%TD*%
D13*
%TO.P,REF\u002A\u002A,1*%
%TO.N,Net-(U1-Pad4)*%
X153640000Y-100330000D03*
D14*
%TO.P,REF\u002A\u002A,2*%
%TO.N,Net-(U1-Pad6)*%
X151100000Y-100330000D03*
%TO.P,REF\u002A\u002A,3*%
%TO.N,N/C*%
X148560000Y-100330000D03*
%TO.P,REF\u002A\u002A,4*%
%TO.N,Net-(U1-Pad11)*%
X146020000Y-100330000D03*
%TO.P,REF\u002A\u002A,5*%
%TO.N,Net-(U1-Pad12)*%
X143480000Y-100330000D03*
%TO.P,REF\u002A\u002A,6*%
%TO.N,Net-(U1-Pad13)*%
X140940000Y-100330000D03*
%TO.P,REF\u002A\u002A,7*%
%TO.N,Net-(U1-Pad14)*%
X138400000Y-100330000D03*
%TO.P,REF\u002A\u002A,8*%
%TO.N,N/C*%
X135860000Y-100330000D03*
%TO.P,REF\u002A\u002A,9*%
X133320000Y-100330000D03*
%TO.P,REF\u002A\u002A,10*%
%TO.N,+BATT*%
X130780000Y-100330000D03*
%TD*%
D13*
%TO.P,REF\u002A\u002A,1*%
%TO.N,Net-(R3-Pad1)*%
X153670000Y-146050000D03*
D14*
%TO.P,REF\u002A\u002A,2*%
%TO.N,Net-(R2-Pad1)*%
X151130000Y-146050000D03*
%TO.P,REF\u002A\u002A,3*%
%TO.N,Net-(R1-Pad1)*%
X148590000Y-146050000D03*
%TO.P,REF\u002A\u002A,4*%
%TO.N,N/C*%
X146050000Y-146050000D03*
%TO.P,REF\u002A\u002A,5*%
X143510000Y-146050000D03*
%TO.P,REF\u002A\u002A,6*%
X140970000Y-146050000D03*
%TO.P,REF\u002A\u002A,7*%
X138430000Y-146050000D03*
%TO.P,REF\u002A\u002A,8*%
X135890000Y-146050000D03*
%TO.P,REF\u002A\u002A,9*%
X133350000Y-146050000D03*
%TO.P,REF\u002A\u002A,10*%
%TO.N,GND*%
X130810000Y-146050000D03*
%TD*%
D13*
%TO.P,REF\u002A\u002A,1*%
%TO.N,N/C*%
X145460000Y-133325000D03*
D14*
%TO.P,REF\u002A\u002A,2*%
X145460000Y-130785000D03*
%TO.P,REF\u002A\u002A,3*%
X145460000Y-128245000D03*
%TO.P,REF\u002A\u002A,4*%
%TO.N,GND*%
X145460000Y-125705000D03*
%TO.P,REF\u002A\u002A,5*%
%TO.N,+BATT*%
X145460000Y-123165000D03*
%TO.P,REF\u002A\u002A,6*%
%TO.N,N/C*%
X145460000Y-120625000D03*
%TD*%
D13*
%TO.P,REF\u002A\u002A,1*%
%TO.N,N/C*%
X125730000Y-96520000D03*
%TD*%
%TO.P,REF\u002A\u002A,1*%
%TO.N,GND*%
X133350000Y-102845000D03*
D14*
%TO.P,REF\u002A\u002A,2*%
%TO.N,N/C*%
X130810000Y-102845000D03*
%TD*%
D13*
%TO.P,REF\u002A\u002A,1*%
%TO.N,GND*%
X124460000Y-149860000D03*
%TD*%
%TO.P,REF\u002A\u002A,1*%
%TO.N,GND*%
X104140000Y-149860000D03*
%TD*%
%TO.P,REF\u002A\u002A,1*%
%TO.N,+BATT*%
X116840000Y-147320000D03*
%TD*%
%TO.P,REF\u002A\u002A,1*%
%TO.N,+BATT*%
X99060000Y-147320000D03*
%TD*%
%TO.P,REF\u002A\u002A,1*%
%TO.N,GND*%
X139700000Y-149860000D03*
%TD*%
%TO.P,REF\u002A\u002A,1*%
%TO.N,+BATT*%
X138430000Y-105410000D03*
%TD*%
%TO.P,REF\u002A\u002A,1*%
%TO.N,+BATT*%
X144780000Y-96520000D03*
%TD*%
D15*
%TO.N,GND*%
X102870000Y-134620000D03*
X109220000Y-96520000D03*
X105410000Y-96520000D03*
%TO.N,+BATT*%
X113030000Y-105410000D03*
X134620000Y-120650000D03*
X129540000Y-106680000D03*
X116840000Y-135890000D03*
X116840000Y-135890000D03*
%TO.N,Net-(R1-Pad1)*%
X100330000Y-105410000D03*
%TO.N,Net-(R2-Pad1)*%
X100330000Y-101600000D03*
%TO.N,Net-(R3-Pad1)*%
X100330000Y-97790000D03*
%TD*%
D16*
%TO.N,*%
X142895000Y-130810000D02*
X142240000Y-131465000D01*
X125730000Y-101600000D02*
X125730000Y-96520000D01*
X145460000Y-128245000D02*
X142895000Y-130810000D01*
X142240000Y-131465000D02*
X142240000Y-132080000D01*
X127000000Y-102870000D02*
X125730000Y-101600000D01*
X142240000Y-142240000D02*
X146050000Y-146050000D01*
X142240000Y-132080000D02*
X142240000Y-142240000D01*
X130810000Y-102845000D02*
X127025000Y-102845000D01*
X127025000Y-102845000D02*
X127000000Y-102870000D01*
D17*
%TO.N,GND*%
X104140000Y-149860000D02*
X106680000Y-147320000D01*
X102620000Y-134370000D02*
X102870000Y-134620000D01*
X145460000Y-125705000D02*
X121945000Y-125705000D01*
X102620000Y-110372500D02*
X102620000Y-134370000D01*
X104140000Y-149860000D02*
X104140000Y-148590000D01*
X109220000Y-96520000D02*
X105410000Y-96520000D01*
X106680000Y-147320000D02*
X106680000Y-140970000D01*
X106680000Y-140970000D02*
X121920000Y-125730000D01*
%TO.N,+BATT*%
X129540000Y-105410000D02*
X138430000Y-105410000D01*
X112305489Y-106134511D02*
X113030000Y-105410000D01*
X133350000Y-106680000D02*
X134620000Y-107950000D01*
X134620000Y-113030000D02*
X134620000Y-120650000D01*
X129540000Y-106680000D02*
X133350000Y-106680000D01*
X134620000Y-107950000D02*
X134620000Y-113030000D01*
X145460000Y-123165000D02*
X121945000Y-123165000D01*
X104140000Y-147320000D02*
X99060000Y-147320000D01*
X121945000Y-123165000D02*
X104140000Y-140970000D01*
X99237989Y-106134511D02*
X112305489Y-106134511D01*
X95000000Y-110372500D02*
X99237989Y-106134511D01*
X116840000Y-135890000D02*
X116840000Y-147320000D01*
X128020000Y-106930000D02*
X129540000Y-105410000D01*
X104140000Y-140970000D02*
X104140000Y-147320000D01*
X128020000Y-110372500D02*
X128020000Y-106930000D01*
X121945000Y-123165000D02*
X121920000Y-123190000D01*
%TO.N,Net-(R1-Pad1)*%
X148590000Y-146050000D02*
X142240000Y-152400000D01*
X142240000Y-152400000D02*
X92710000Y-152400000D01*
X92710000Y-152400000D02*
X85090000Y-144780000D01*
X85090000Y-106680000D02*
X86360000Y-105410000D01*
X85090000Y-144780000D02*
X85090000Y-106680000D01*
X86360000Y-105410000D02*
X100330000Y-105410000D01*
%TO.N,Net-(R2-Pad1)*%
X143510000Y-153670000D02*
X151130000Y-146050000D01*
X86360000Y-101600000D02*
X82550000Y-105410000D01*
X82550000Y-144780000D02*
X91440000Y-153670000D01*
X100330000Y-101600000D02*
X86360000Y-101600000D01*
X91440000Y-153670000D02*
X143510000Y-153670000D01*
X82550000Y-105410000D02*
X82550000Y-144780000D01*
%TO.N,Net-(R3-Pad1)*%
X100330000Y-97790000D02*
X87630000Y-97790000D01*
X81280000Y-104140000D02*
X81280000Y-147320000D01*
X87630000Y-97790000D02*
X81280000Y-104140000D01*
X88900000Y-154940000D02*
X144780000Y-154940000D01*
X144780000Y-154940000D02*
X153670000Y-146050000D01*
X81280000Y-147320000D02*
X88900000Y-154940000D01*
%TD*%
M02*
