%FSLAX45Y45*%
G04 Gerber Fmt 4.5, Leading zero omitted, Abs format (unit mm)*
G04 Created by KiCad (PCBNEW (6.0.4-0)) date 2022-04-09 01:41:47*
%MOMM*%
%LPD*%
G01*
G04 APERTURE LIST*
%TA.AperFunction,Profile*%
%ADD10C,0.100000*%
%TD*%
%ADD11C,0.200000*%
G04 APERTURE END LIST*
D10*
X16764000Y-9398000D02*
X7874000Y-9398000D01*
X7874000Y-9398000D02*
X7874000Y-15748000D01*
X7874000Y-15748000D02*
X16764000Y-15748000D01*
X16764000Y-15748000D02*
X16764000Y-9398000D01*
D11*
X8155000Y-9679000D02*
X8355000Y-9879000D01*
X8355000Y-9679000D02*
X8155000Y-9879000D01*
X8155000Y-15267000D02*
X8355000Y-15467000D01*
X8355000Y-15267000D02*
X8155000Y-15467000D01*
X16283000Y-9679000D02*
X16483000Y-9879000D01*
X16483000Y-9679000D02*
X16283000Y-9879000D01*
X16283000Y-15267000D02*
X16483000Y-15467000D01*
X16483000Y-15267000D02*
X16283000Y-15467000D01*
X8126619Y-16063476D02*
X8126619Y-15863476D01*
X8174238Y-15863476D01*
X8202809Y-15873000D01*
X8221857Y-15892048D01*
X8231381Y-15911095D01*
X8240905Y-15949190D01*
X8240905Y-15977762D01*
X8231381Y-16015857D01*
X8221857Y-16034905D01*
X8202809Y-16053952D01*
X8174238Y-16063476D01*
X8126619Y-16063476D01*
X8326619Y-16063476D02*
X8326619Y-15930143D01*
X8326619Y-15968238D02*
X8336143Y-15949190D01*
X8345667Y-15939667D01*
X8364714Y-15930143D01*
X8383762Y-15930143D01*
X8450429Y-16063476D02*
X8450429Y-15930143D01*
X8450429Y-15863476D02*
X8440905Y-15873000D01*
X8450429Y-15882524D01*
X8459952Y-15873000D01*
X8450429Y-15863476D01*
X8450429Y-15882524D01*
X8574238Y-16063476D02*
X8555190Y-16053952D01*
X8545667Y-16034905D01*
X8545667Y-15863476D01*
X8679000Y-16063476D02*
X8659952Y-16053952D01*
X8650429Y-16034905D01*
X8650429Y-15863476D01*
X8907571Y-16063476D02*
X8907571Y-15863476D01*
X8974238Y-16006333D01*
X9040905Y-15863476D01*
X9040905Y-16063476D01*
X9221857Y-16063476D02*
X9221857Y-15958714D01*
X9212333Y-15939667D01*
X9193286Y-15930143D01*
X9155190Y-15930143D01*
X9136143Y-15939667D01*
X9221857Y-16053952D02*
X9202810Y-16063476D01*
X9155190Y-16063476D01*
X9136143Y-16053952D01*
X9126619Y-16034905D01*
X9126619Y-16015857D01*
X9136143Y-15996809D01*
X9155190Y-15987286D01*
X9202810Y-15987286D01*
X9221857Y-15977762D01*
X9317095Y-15930143D02*
X9317095Y-16130143D01*
X9317095Y-15939667D02*
X9336143Y-15930143D01*
X9374238Y-15930143D01*
X9393286Y-15939667D01*
X9402810Y-15949190D01*
X9412333Y-15968238D01*
X9412333Y-16025381D01*
X9402810Y-16044428D01*
X9393286Y-16053952D01*
X9374238Y-16063476D01*
X9336143Y-16063476D01*
X9317095Y-16053952D01*
X9498048Y-16044428D02*
X9507571Y-16053952D01*
X9498048Y-16063476D01*
X9488524Y-16053952D01*
X9498048Y-16044428D01*
X9498048Y-16063476D01*
X9498048Y-15939667D02*
X9507571Y-15949190D01*
X9498048Y-15958714D01*
X9488524Y-15949190D01*
X9498048Y-15939667D01*
X9498048Y-15958714D01*
X7669000Y-16293000D02*
X7869000Y-16493000D01*
X7869000Y-16293000D02*
X7669000Y-16493000D01*
X8117095Y-16302524D02*
X8126619Y-16293000D01*
X8145667Y-16283476D01*
X8193286Y-16283476D01*
X8212333Y-16293000D01*
X8221857Y-16302524D01*
X8231381Y-16321571D01*
X8231381Y-16340619D01*
X8221857Y-16369190D01*
X8107571Y-16483476D01*
X8231381Y-16483476D01*
X8317095Y-16464428D02*
X8326619Y-16473952D01*
X8317095Y-16483476D01*
X8307571Y-16473952D01*
X8317095Y-16464428D01*
X8317095Y-16483476D01*
X8450429Y-16283476D02*
X8469476Y-16283476D01*
X8488524Y-16293000D01*
X8498048Y-16302524D01*
X8507571Y-16321571D01*
X8517095Y-16359667D01*
X8517095Y-16407286D01*
X8507571Y-16445381D01*
X8498048Y-16464428D01*
X8488524Y-16473952D01*
X8469476Y-16483476D01*
X8450429Y-16483476D01*
X8431381Y-16473952D01*
X8421857Y-16464428D01*
X8412333Y-16445381D01*
X8402810Y-16407286D01*
X8402810Y-16359667D01*
X8412333Y-16321571D01*
X8421857Y-16302524D01*
X8431381Y-16293000D01*
X8450429Y-16283476D01*
X8640905Y-16283476D02*
X8659952Y-16283476D01*
X8679000Y-16293000D01*
X8688524Y-16302524D01*
X8698048Y-16321571D01*
X8707571Y-16359667D01*
X8707571Y-16407286D01*
X8698048Y-16445381D01*
X8688524Y-16464428D01*
X8679000Y-16473952D01*
X8659952Y-16483476D01*
X8640905Y-16483476D01*
X8621857Y-16473952D01*
X8612333Y-16464428D01*
X8602810Y-16445381D01*
X8593286Y-16407286D01*
X8593286Y-16359667D01*
X8602810Y-16321571D01*
X8612333Y-16302524D01*
X8621857Y-16293000D01*
X8640905Y-16283476D01*
X8831381Y-16283476D02*
X8850429Y-16283476D01*
X8869476Y-16293000D01*
X8879000Y-16302524D01*
X8888524Y-16321571D01*
X8898048Y-16359667D01*
X8898048Y-16407286D01*
X8888524Y-16445381D01*
X8879000Y-16464428D01*
X8869476Y-16473952D01*
X8850429Y-16483476D01*
X8831381Y-16483476D01*
X8812333Y-16473952D01*
X8802810Y-16464428D01*
X8793286Y-16445381D01*
X8783762Y-16407286D01*
X8783762Y-16359667D01*
X8793286Y-16321571D01*
X8802810Y-16302524D01*
X8812333Y-16293000D01*
X8831381Y-16283476D01*
X8983762Y-16483476D02*
X8983762Y-16350143D01*
X8983762Y-16369190D02*
X8993286Y-16359667D01*
X9012333Y-16350143D01*
X9040905Y-16350143D01*
X9059952Y-16359667D01*
X9069476Y-16378714D01*
X9069476Y-16483476D01*
X9069476Y-16378714D02*
X9079000Y-16359667D01*
X9098048Y-16350143D01*
X9126619Y-16350143D01*
X9145667Y-16359667D01*
X9155190Y-16378714D01*
X9155190Y-16483476D01*
X9250429Y-16483476D02*
X9250429Y-16350143D01*
X9250429Y-16369190D02*
X9259952Y-16359667D01*
X9279000Y-16350143D01*
X9307571Y-16350143D01*
X9326619Y-16359667D01*
X9336143Y-16378714D01*
X9336143Y-16483476D01*
X9336143Y-16378714D02*
X9345667Y-16359667D01*
X9364714Y-16350143D01*
X9393286Y-16350143D01*
X9412333Y-16359667D01*
X9421857Y-16378714D01*
X9421857Y-16483476D01*
X9812333Y-16273952D02*
X9640905Y-16531095D01*
X10069476Y-16283476D02*
X10088524Y-16283476D01*
X10107571Y-16293000D01*
X10117095Y-16302524D01*
X10126619Y-16321571D01*
X10136143Y-16359667D01*
X10136143Y-16407286D01*
X10126619Y-16445381D01*
X10117095Y-16464428D01*
X10107571Y-16473952D01*
X10088524Y-16483476D01*
X10069476Y-16483476D01*
X10050429Y-16473952D01*
X10040905Y-16464428D01*
X10031381Y-16445381D01*
X10021857Y-16407286D01*
X10021857Y-16359667D01*
X10031381Y-16321571D01*
X10040905Y-16302524D01*
X10050429Y-16293000D01*
X10069476Y-16283476D01*
X10221857Y-16464428D02*
X10231381Y-16473952D01*
X10221857Y-16483476D01*
X10212333Y-16473952D01*
X10221857Y-16464428D01*
X10221857Y-16483476D01*
X10355190Y-16283476D02*
X10374238Y-16283476D01*
X10393286Y-16293000D01*
X10402810Y-16302524D01*
X10412333Y-16321571D01*
X10421857Y-16359667D01*
X10421857Y-16407286D01*
X10412333Y-16445381D01*
X10402810Y-16464428D01*
X10393286Y-16473952D01*
X10374238Y-16483476D01*
X10355190Y-16483476D01*
X10336143Y-16473952D01*
X10326619Y-16464428D01*
X10317095Y-16445381D01*
X10307571Y-16407286D01*
X10307571Y-16359667D01*
X10317095Y-16321571D01*
X10326619Y-16302524D01*
X10336143Y-16293000D01*
X10355190Y-16283476D01*
X10488524Y-16283476D02*
X10621857Y-16283476D01*
X10536143Y-16483476D01*
X10726619Y-16369190D02*
X10707571Y-16359667D01*
X10698048Y-16350143D01*
X10688524Y-16331095D01*
X10688524Y-16321571D01*
X10698048Y-16302524D01*
X10707571Y-16293000D01*
X10726619Y-16283476D01*
X10764714Y-16283476D01*
X10783762Y-16293000D01*
X10793286Y-16302524D01*
X10802810Y-16321571D01*
X10802810Y-16331095D01*
X10793286Y-16350143D01*
X10783762Y-16359667D01*
X10764714Y-16369190D01*
X10726619Y-16369190D01*
X10707571Y-16378714D01*
X10698048Y-16388238D01*
X10688524Y-16407286D01*
X10688524Y-16445381D01*
X10698048Y-16464428D01*
X10707571Y-16473952D01*
X10726619Y-16483476D01*
X10764714Y-16483476D01*
X10783762Y-16473952D01*
X10793286Y-16464428D01*
X10802810Y-16445381D01*
X10802810Y-16407286D01*
X10793286Y-16388238D01*
X10783762Y-16378714D01*
X10764714Y-16369190D01*
X10869476Y-16283476D02*
X11002810Y-16283476D01*
X10917095Y-16483476D01*
X11069476Y-16283476D02*
X11069476Y-16321571D01*
X11145667Y-16283476D02*
X11145667Y-16321571D01*
X11440905Y-16559667D02*
X11431381Y-16550143D01*
X11412333Y-16521571D01*
X11402809Y-16502524D01*
X11393286Y-16473952D01*
X11383762Y-16426333D01*
X11383762Y-16388238D01*
X11393286Y-16340619D01*
X11402809Y-16312048D01*
X11412333Y-16293000D01*
X11431381Y-16264428D01*
X11440905Y-16254905D01*
X11602809Y-16350143D02*
X11602809Y-16483476D01*
X11555190Y-16273952D02*
X11507571Y-16416809D01*
X11631381Y-16416809D01*
X11859952Y-16483476D02*
X11859952Y-16283476D01*
X11945667Y-16483476D02*
X11945667Y-16378714D01*
X11936143Y-16359667D01*
X11917095Y-16350143D01*
X11888524Y-16350143D01*
X11869476Y-16359667D01*
X11859952Y-16369190D01*
X12069476Y-16483476D02*
X12050428Y-16473952D01*
X12040905Y-16464428D01*
X12031381Y-16445381D01*
X12031381Y-16388238D01*
X12040905Y-16369190D01*
X12050428Y-16359667D01*
X12069476Y-16350143D01*
X12098048Y-16350143D01*
X12117095Y-16359667D01*
X12126619Y-16369190D01*
X12136143Y-16388238D01*
X12136143Y-16445381D01*
X12126619Y-16464428D01*
X12117095Y-16473952D01*
X12098048Y-16483476D01*
X12069476Y-16483476D01*
X12250428Y-16483476D02*
X12231381Y-16473952D01*
X12221857Y-16454905D01*
X12221857Y-16283476D01*
X12402809Y-16473952D02*
X12383762Y-16483476D01*
X12345667Y-16483476D01*
X12326619Y-16473952D01*
X12317095Y-16454905D01*
X12317095Y-16378714D01*
X12326619Y-16359667D01*
X12345667Y-16350143D01*
X12383762Y-16350143D01*
X12402809Y-16359667D01*
X12412333Y-16378714D01*
X12412333Y-16397762D01*
X12317095Y-16416809D01*
X12488524Y-16473952D02*
X12507571Y-16483476D01*
X12545667Y-16483476D01*
X12564714Y-16473952D01*
X12574238Y-16454905D01*
X12574238Y-16445381D01*
X12564714Y-16426333D01*
X12545667Y-16416809D01*
X12517095Y-16416809D01*
X12498048Y-16407286D01*
X12488524Y-16388238D01*
X12488524Y-16378714D01*
X12498048Y-16359667D01*
X12517095Y-16350143D01*
X12545667Y-16350143D01*
X12564714Y-16359667D01*
X12640905Y-16559667D02*
X12650428Y-16550143D01*
X12669476Y-16521571D01*
X12679000Y-16502524D01*
X12688524Y-16473952D01*
X12698048Y-16426333D01*
X12698048Y-16388238D01*
X12688524Y-16340619D01*
X12679000Y-16312048D01*
X12669476Y-16293000D01*
X12650428Y-16264428D01*
X12640905Y-16254905D01*
X13002809Y-16559667D02*
X12993286Y-16550143D01*
X12974238Y-16521571D01*
X12964714Y-16502524D01*
X12955190Y-16473952D01*
X12945667Y-16426333D01*
X12945667Y-16388238D01*
X12955190Y-16340619D01*
X12964714Y-16312048D01*
X12974238Y-16293000D01*
X12993286Y-16264428D01*
X13002809Y-16254905D01*
X13079000Y-16350143D02*
X13079000Y-16483476D01*
X13079000Y-16369190D02*
X13088524Y-16359667D01*
X13107571Y-16350143D01*
X13136143Y-16350143D01*
X13155190Y-16359667D01*
X13164714Y-16378714D01*
X13164714Y-16483476D01*
X13288524Y-16483476D02*
X13269476Y-16473952D01*
X13259952Y-16464428D01*
X13250428Y-16445381D01*
X13250428Y-16388238D01*
X13259952Y-16369190D01*
X13269476Y-16359667D01*
X13288524Y-16350143D01*
X13317095Y-16350143D01*
X13336143Y-16359667D01*
X13345667Y-16369190D01*
X13355190Y-16388238D01*
X13355190Y-16445381D01*
X13345667Y-16464428D01*
X13336143Y-16473952D01*
X13317095Y-16483476D01*
X13288524Y-16483476D01*
X13412333Y-16350143D02*
X13488524Y-16350143D01*
X13440905Y-16283476D02*
X13440905Y-16454905D01*
X13450428Y-16473952D01*
X13469476Y-16483476D01*
X13488524Y-16483476D01*
X13707571Y-16350143D02*
X13707571Y-16550143D01*
X13707571Y-16359667D02*
X13726619Y-16350143D01*
X13764714Y-16350143D01*
X13783762Y-16359667D01*
X13793286Y-16369190D01*
X13802809Y-16388238D01*
X13802809Y-16445381D01*
X13793286Y-16464428D01*
X13783762Y-16473952D01*
X13764714Y-16483476D01*
X13726619Y-16483476D01*
X13707571Y-16473952D01*
X13917095Y-16483476D02*
X13898048Y-16473952D01*
X13888524Y-16454905D01*
X13888524Y-16283476D01*
X14079000Y-16483476D02*
X14079000Y-16378714D01*
X14069476Y-16359667D01*
X14050428Y-16350143D01*
X14012333Y-16350143D01*
X13993286Y-16359667D01*
X14079000Y-16473952D02*
X14059952Y-16483476D01*
X14012333Y-16483476D01*
X13993286Y-16473952D01*
X13983762Y-16454905D01*
X13983762Y-16435857D01*
X13993286Y-16416809D01*
X14012333Y-16407286D01*
X14059952Y-16407286D01*
X14079000Y-16397762D01*
X14145667Y-16350143D02*
X14221857Y-16350143D01*
X14174238Y-16283476D02*
X14174238Y-16454905D01*
X14183762Y-16473952D01*
X14202809Y-16483476D01*
X14221857Y-16483476D01*
X14364714Y-16473952D02*
X14345667Y-16483476D01*
X14307571Y-16483476D01*
X14288524Y-16473952D01*
X14279000Y-16454905D01*
X14279000Y-16378714D01*
X14288524Y-16359667D01*
X14307571Y-16350143D01*
X14345667Y-16350143D01*
X14364714Y-16359667D01*
X14374238Y-16378714D01*
X14374238Y-16397762D01*
X14279000Y-16416809D01*
X14545667Y-16483476D02*
X14545667Y-16283476D01*
X14545667Y-16473952D02*
X14526619Y-16483476D01*
X14488524Y-16483476D01*
X14469476Y-16473952D01*
X14459952Y-16464428D01*
X14450428Y-16445381D01*
X14450428Y-16388238D01*
X14459952Y-16369190D01*
X14469476Y-16359667D01*
X14488524Y-16350143D01*
X14526619Y-16350143D01*
X14545667Y-16359667D01*
X14621857Y-16559667D02*
X14631381Y-16550143D01*
X14650428Y-16521571D01*
X14659952Y-16502524D01*
X14669476Y-16473952D01*
X14679000Y-16426333D01*
X14679000Y-16388238D01*
X14669476Y-16340619D01*
X14659952Y-16312048D01*
X14650428Y-16293000D01*
X14631381Y-16264428D01*
X14621857Y-16254905D01*
M02*
